<svg xmlns="http://www.w3.org/2000/svg" version="1.1" xmlns:xlink="http://www.w3.org/1999/xlink" xmlns:svgjs="http://svgjs.dev/svgjs" width="100%" height="100%" viewBox="0 0 1000 600"><rect width="1000" height="600" x="0" y="0" fill="#191919"/><g><rect width="333.3333333333333" height="333.3333333333333" rx="13.333333333333334" ry="13.333333333333334" y="254.76126747608185" fill="#b88746" transform="matrix(0.537544095414077,0,0,0.5375440954140769,0,73.46389695598002)" x="232.5390625"/><path d="M452.33690692480303 346.4279383168182Q456.6039951223088 346.4279383168182 458.73753922106164 348.68001264327955Q460.8710833198146 350.93208696974096 460.8710833198146 354.9621147118297L460.8710833198146 354.9621147118297L460.6340228643976 432.83647431631Q460.6340228643976 458.67606395676154 459.0338647903329 472.30704014323834Q457.43370671626826 485.96764888664217 454.3519207958474 490.97555100732603Q451.2701348754266 496.01308568493704 445.93627462854437 496.01308568493704L445.93627462854437 496.01308568493704Q439.53564233228576 496.01308568493704 432.48309378363035 489.28649526248Q425.430545234975 482.55990484002297 416.6889409414736 469.6401100197972Q407.9473366479722 456.74994775649856 391.2938396549289 430.4955023190672L391.2938396549289 430.4955023190672Q375.7367472681891 405.75231728491923 367.7359568978658 393.48443871709014Q359.73516652754245 381.21656014926106 353.9568179267534 373.33430000664623L353.9568179267534 373.33430000664623Q353.9568179267534 387.8246203440096 354.1938783821704 396.56622463751097L354.1938783821704 396.56622463751097L354.40130628066026 424.95421417369516L354.60873417915013 489.6124533886784Q354.60873417915013 492.36828118290083 352.2677621819074 494.4129276108724Q349.92679018466464 496.4279414819168 346.2819856826285 496.4279414819168L346.2819856826285 496.4279414819168Q342.8742416360093 496.4279414819168 340.414739411058 494.4129276108724Q337.9552371861068 492.36828118290083 337.9552371861068 489.6124533886784L337.9552371861068 489.6124533886784L337.9552371861068 424.7467862752053Q337.9552371861068 404.4781173370529 337.7478092876169 393.15848059089177L337.7478092876169 393.15848059089177L337.54038138912705 361.3627470080884Q337.54038138912705 354.54725891485003 339.67392548787996 351.2284125390122Q341.8074695866328 347.9391987201015 347.14132983351504 347.9391987201015L347.14132983351504 347.9391987201015Q352.89004587737696 347.9391987201015 358.668394478166 353.0656310684938Q364.417110522028 358.16243085995904 370.49178469208823 367.14109560887744Q376.59609141907566 376.09012780086874 388.3305839622165 394.8771688926649L388.3305839622165 394.8771688926649Q386.61189566044334 391.8842806430255 399.62058815145053 413.21972163055426L399.62058815145053 413.21972163055426Q426.0824614873717 455.4757478086322 441.8766143295285 475.7444167467846L441.8766143295285 475.7444167467846Q444.01015842828133 460.15769180311776 444.01015842828133 432.6290464178201L444.01015842828133 432.6290464178201L444.01015842828133 353.8953426624533Q444.01015842828133 350.4875986158341 446.2326001978156 348.4725847447897Q448.484674524277 346.4279383168182 452.33690692480303 346.4279383168182L452.33690692480303 346.4279383168182Z " fill="#191919" transform="matrix(0.537544095414077,0,0,0.5375440954140769,0,73.46389695598002)"/><path d="M698.1640603260862 399.47481194886075Q729.8307257344327 399.47481194886075 729.8307257344327 444.29251850129845L729.8307257344327 444.29251850129845L729.8307257344327 488.172725090989Q729.8307257344327 494.7352248302187 722.9036426763569 494.7352248302187L722.9036426763569 494.7352248302187Q715.4036429743801 494.7352248302187 715.4036429743801 488.35501675041206L715.4036429743801 488.35501675041206L715.4036429743801 444.1102268418754Q715.4036429743801 427.5998108312737 711.6536431233917 419.81335280734646Q707.9036432724033 412.052936449051 698.1640603260862 412.052936449051L698.1640603260862 412.052936449051Q687.8515607358681 412.052936449051 681.2890609966385 419.91751946987387Q674.7265612574088 427.7821024906968 672.0963530285904 440.54251865031006L672.0963530285904 440.54251865031006Q670.4036447625193 449.162309974457 670.4036447625193 461.7404344746472L670.4036447625193 461.7404344746472L670.5859364219424 489.47480837258223Q670.5859364219424 492.10501660140045 668.7109364964482 493.5112665455211Q666.8359365709539 494.91751648964174 663.6588533638666 494.91751648964174L663.6588533638666 494.91751648964174Q660.0911451723013 494.91751648964174 658.2161452468071 493.4070998829937Q656.3411453213129 491.92272494197744 656.3411453213129 489.47480837258223L656.3411453213129 489.47480837258223Q656.3411453213129 472.7821007025575 655.5859370179887 448.7977266556109L655.5859370179887 448.7977266556109Q655.0390620397196 434.9175188738275 655.0390620397196 424.24043596476326L655.0390620397196 424.24043596476326Q655.0390620397196 419.5529361510278 653.9973954144451 416.8185612596821Q652.9557287891705 414.1102280339682 649.9609372415061 409.2404365608097L649.9609372415061 409.2404365608097Q649.2057289381821 408.0946032730077 649.2057289381821 406.61022833199144L649.2057289381821 406.61022833199144Q649.2057289381821 404.3446034220193 651.7578121701048 402.3914784996295Q654.2838537363956 400.41231191160784 656.7057286401589 400.41231191160784L656.7057286401589 400.41231191160784Q659.1536452095542 400.41231191160784 661.7838534383724 403.9800201031732L661.7838534383724 403.9800201031732Q663.8411450232896 406.9748116508375 665.6119782862563 411.1935614831995Q667.408853214855 415.41231131556145 667.408853214855 419.16231116654984L667.408853214855 419.16231116654984L667.408853214855 421.2196027514671Q670.7682280813654 411.8446031239961 678.2682277833421 405.67272836924434Q685.768227485319 399.47481194886075 698.1640603260862 399.47481194886075L698.1640603260862 399.47481194886075ZM828.4765551479329 474.2925173092056Q828.4765551479329 477.8602255007709 829.3098884481525 480.2821004045343Q830.1432217483722 482.7300169739295 831.4713466955973 484.89147522137415Q832.7734299771904 487.0529334688189 832.7734299771904 487.7821001065111L832.7734299771904 487.7821001065111Q832.7734299771904 489.86543335706017 830.7161383922731 491.74043328255436Q828.658846807356 493.6154332080486 826.7838468818618 493.6154332080486L826.7838468818618 493.6154332080486Q823.0338470308733 493.6154332080486 820.1171804801046 488.9279333943131Q817.2265555949677 484.2404335805776 817.2265555949677 479.9175170856882L817.2265555949677 479.9175170856882L817.2265555949677 477.28730885686997Q813.2682224189243 485.9071001810169 805.117181076151 490.4123083353293Q796.9661397333776 494.91751648964174 786.4713484837365 494.91751648964174L786.4713484837365 494.91751648964174Q770.5338491170359 494.91751648964174 762.6432244305811 484.03210025552266Q754.7786414097582 473.17272568703544 754.7786414097582 452.36543484717623L754.7786414097582 452.36543484717623L754.7786414097582 406.0373116880904Q754.7786414097582 403.61543678432713 756.7578079977799 402.105020177679Q758.7109329201696 400.5946035710309 761.705724467834 400.5946035710309L761.705724467834 400.5946035710309Q764.9088493405533 400.5946035710309 766.9661409254704 402.105020177679Q769.0234325103877 403.61543678432713 769.0234325103877 406.0373116880904L769.0234325103877 406.0373116880904L769.0234325103877 452.7300181660223Q769.0234325103877 468.48522587329995 773.5286406647001 475.80293391585366Q778.0338488190126 483.09460029277557 787.9557234247527 483.09460029277557L787.9557234247527 483.09460029277557Q813.2682224189243 483.09460029277557 813.2682224189243 437.15710211816776L813.2682224189243 437.15710211816776L813.2682224189243 405.8550200286674Q813.2682224189243 402.86022848100305 815.1432223444185 401.1675202149319Q817.0182222699128 399.47481194886075 820.221347142632 399.47481194886075L820.221347142632 399.47481194886075Q823.5807220091425 399.47481194886075 825.6640552596916 401.1675202149319Q827.7213468446089 402.86022848100305 827.7213468446089 405.8550200286674L827.7213468446089 405.8550200286674L828.4765551479329 474.2925173092056ZM911.7057185073697 464.3446010378336Q915.091135039512 464.3446010378336 916.4973849836326 465.95918430700914Q917.9036349277533 467.54772591055286 917.9036349277533 471.66230908038733L917.9036349277533 471.66230908038733Q917.9036349277533 481.4279336923363 911.445301851051 488.172725090989Q904.960927108717 494.91751648964174 894.830719177922 494.91751648964174L894.830719177922 494.91751648964174Q880.7682197367155 494.91751648964174 874.6744699788594 482.5477253145064Q868.5807202210033 470.1779341393711 868.5807202210033 444.1102268418754L868.5807202210033 444.1102268418754Q868.5807202210033 434.34460222992647 869.5182201837504 421.79251939536806L869.5182201837504 421.79251939536806Q867.4609285988331 421.61022773594505 857.9036373119391 420.85501943262096L857.9036373119391 420.85501943262096Q852.2786375354565 420.28210278872 852.2786375354565 414.65710301223737L852.2786375354565 414.65710301223737Q852.2786375354565 409.0321032357548 857.721345652516 409.0321032357548L857.721345652516 409.0321032357548Q859.2057205935322 409.0321032357548 864.1015537323226 409.4227282202328L864.1015537323226 409.4227282202328Q868.2161369021571 409.78731153907887 870.4557201464975 409.78731153907887L870.4557201464975 409.78731153907887Q871.7838450937224 395.90710375729543 874.9609283008099 374.91752125801315L874.9609283008099 374.91752125801315Q875.3515532852878 372.10502136977186 876.9400948888315 370.6987714256512Q878.5286364923752 369.29252148153057 882.0963446839405 369.29252148153057L882.0963446839405 369.29252148153057Q885.6640528755058 369.29252148153057 887.7213444604231 371.16752140702476Q889.7786360453404 373.04252133251896 889.4140527264942 375.85502122076025L889.4140527264942 375.85502122076025L888.4765527637472 382.05293764114384Q885.6640528755058 403.79772844375015 884.9088445721818 410.5425198424029L884.9088445721818 410.5425198424029L899.9088439761354 410.907103161249Q902.7213438643766 410.907103161249 904.1275938084973 412.052936449051Q905.5338437526179 413.1727280712211 905.5338437526179 415.98522795946246L905.5338437526179 415.98522795946246Q905.5338437526179 419.5529361510278 904.1275938084973 420.75085277009356Q902.7213438643766 421.97481105479113 898.7890523539653 422.1571027142142L898.7890523539653 422.1571027142142Q892.9557192524278 422.36543603926907 883.7890529500116 422.36543603926907L883.7890529500116 422.36543603926907Q882.8515529872645 434.1623105705034 882.8515529872645 444.1102268418754L882.8515529872645 444.1102268418754Q882.8515529872645 462.28730945291636 885.7421778724015 472.5998090431344Q888.6588444231702 482.91230863335255 896.34113578457 482.91230863335255L896.34113578457 482.91230863335255Q900.4557189544046 482.91230863335255 902.9036355237997 479.7352254262651Q905.3515520931949 476.5321005535459 905.716135412041 470.1779341393711L905.716135412041 470.1779341393711Q905.8984270714641 467.1571009260749 906.9400936967386 465.7508509819543Q907.9557186563814 464.3446010378336 911.7057185073697 464.3446010378336L911.7057185073697 464.3446010378336ZM984.8307156016434 398.53731198611365Q996.8359234579327 398.53731198611365 1003.5807148565855 406.1414783506179Q1010.35154792087 413.7196030494903 1010.35154792087 424.60501928360935L1010.35154792087 424.60501928360935Q1010.35154792087 434.9175188738275 1004.1536315004864 440.8289769722606Q997.9557150801029 446.74043507069365 988.2161321337858 446.74043507069365L988.2161321337858 446.74043507069365Q984.4661322827974 446.74043507069365 982.8775906792537 445.59460178289163Q981.28904907571 444.47481016072146 981.28904907571 441.48001861305715L981.28904907571 441.48001861305715Q981.28904907571 436.6102271398986 985.9765488894454 436.4279354804756L985.9765488894454 436.4279354804756Q998.1640484051577 435.28210219267356 998.1640484051577 424.42272762418634L998.1640484051577 424.42272762418634Q998.1640484051577 418.6154361882807 994.9609235324385 414.47481135281436Q991.7838403253511 410.3602281829798 984.6484239422203 410.3602281829798L984.6484239422203 410.3602281829798Q977.1484242402436 410.3602281829798 971.6275911262885 416.7404362627865Q966.0807163467014 423.0946026769613 962.9036331396142 432.57376896695973Q959.7265499325267 442.05293525695816 959.1536332886257 451.2196015593742L959.1536332886257 451.2196015593742Q958.0338416664556 468.48522587329995 958.0338416664556 483.84980859609965L958.0338416664556 483.84980859609965Q958.0338416664556 491.5320999574995 956.627591722335 493.98001652689464Q955.2213417782142 496.4279330962899 951.0807169427478 496.4279330962899L951.0807169427478 496.4279330962899Q946.9661337729134 496.4279330962899 945.3775921693697 494.4487665082682Q943.789050565826 492.4695999202466 943.789050565826 487.59980844708804L943.789050565826 487.59980844708804L943.580717240771 451.7925182032752Q943.580717240771 439.4227270281399 941.7057173152768 419.16231116654984L941.7057173152768 419.16231116654984Q940.5859256931067 407.3654366353155 940.4036340336837 402.28731183710204L940.4036340336837 402.28731183710204Q940.2213423742606 399.29252028943773 942.0963422997548 397.703978685894Q943.971342225249 396.11543708235035 947.3307170917594 396.11543708235035L947.3307170917594 396.11543708235035Q953.164050193297 396.11543708235035 953.528633512143 401.74043685883294L953.528633512143 401.74043685883294Q954.6484251343131 413.53731139006726 954.8307167937362 424.7873109430324L954.8307167937362 424.7873109430324Q958.0338416664556 412.4175197678971 965.8984246872784 405.4904367098213Q973.7890493737332 398.53731198611365 984.8307156016434 398.53731198611365L984.8307156016434 398.53731198611365ZM1053.0859212227585 388.7977290397966Q1048.2161297496 388.7977290397966 1044.8307132174577 385.51647917018175Q1041.4713383509472 382.2352293005669 1041.4713383509472 377.15710450235343L1041.4713383509472 377.15710450235343Q1041.4713383509472 372.10502136977186 1044.8307132174577 368.823771500157Q1048.2161297496 365.5425216305422 1053.4765462072364 365.5425216305422L1053.4765462072364 365.5425216305422Q1058.528629339818 365.5425216305422 1061.809879209433 368.71960483762956Q1065.0911290790477 371.92272971034885 1065.0911290790477 376.9748128429304L1065.0911290790477 376.9748128429304Q1065.0911290790477 382.05293764114384 1061.6275875500098 385.4123125076543Q1058.164046020972 388.7977290397966 1053.0859212227585 388.7977290397966L1053.0859212227585 388.7977290397966ZM1050.2734213345173 493.79772486747163Q1046.9140464680067 493.79772486747163 1044.9348798799851 492.10501660140045Q1042.9557132919635 490.4123083353293 1042.9557132919635 487.59980844708804L1042.9557132919635 487.59980844708804L1044.8307132174577 407.9123116135847Q1044.8307132174577 404.73522840649724 1046.8098798054793 403.0425201404261Q1048.789046393501 401.34981187435494 1052.1484212600114 401.34981187435494L1052.1484212600114 401.34981187435494Q1055.5338377921537 401.34981187435494 1057.4869627145436 403.0425201404261Q1059.4661293025652 404.73522840649724 1059.4661293025652 408.0946032730077L1059.4661293025652 408.0946032730077L1057.591129377071 487.59980844708804Q1057.4088377176479 490.5945999947524 1055.4296711296263 492.2091832639279Q1053.4765462072364 493.79772486747163 1050.2734213345173 493.79772486747163L1050.2734213345173 493.79772486747163ZM1145.716125875298 464.3446010378336Q1149.1015424074405 464.3446010378336 1150.5077923515612 465.95918430700914Q1151.9140422956818 467.54772591055286 1151.9140422956818 471.66230908038733L1151.9140422956818 471.66230908038733Q1151.9140422956818 481.4279336923363 1145.4296675533478 488.172725090989Q1138.9713344766456 494.91751648964174 1128.8411265458506 494.91751648964174L1128.8411265458506 494.91751648964174Q1114.7786271046439 494.91751648964174 1108.6848773467877 482.5477253145064Q1102.5911275889316 470.1779341393711 1102.5911275889316 444.1102268418754L1102.5911275889316 444.1102268418754Q1102.5911275889316 434.34460222992647 1103.5286275516787 421.79251939536806L1103.5286275516787 421.79251939536806Q1101.4713359667617 421.61022773594505 1091.9140446798674 420.85501943262096L1091.9140446798674 420.85501943262096Q1086.2890449033848 420.28210278872 1086.2890449033848 414.65710301223737L1086.2890449033848 414.65710301223737Q1086.2890449033848 409.0321032357548 1091.7057113548126 409.0321032357548L1091.7057113548126 409.0321032357548Q1093.2161279614606 409.0321032357548 1098.0859194346192 409.4227282202328L1098.0859194346192 409.4227282202328Q1102.2265442700857 409.78731153907887 1104.4661275144258 409.78731153907887L1104.4661275144258 409.78731153907887Q1105.768210796019 395.90710375729543 1108.9713356687384 374.91752125801315L1108.9713356687384 374.91752125801315Q1109.3359189875844 372.10502136977186 1110.924460591128 370.6987714256512Q1112.5390438603038 369.29252148153057 1116.0807103862371 369.29252148153057L1116.0807103862371 369.29252148153057Q1119.6484185778027 369.29252148153057 1121.7057101627197 371.16752140702476Q1123.789043413269 373.04252133251896 1123.398418428791 375.85502122076025L1123.398418428791 375.85502122076025L1122.460918466044 382.05293764114384Q1119.6484185778027 403.79772844375015 1118.8932102744784 410.5425198424029L1118.8932102744784 410.5425198424029L1133.893209678432 410.907103161249Q1136.7057095666732 410.907103161249 1138.1119595107941 412.052936449051Q1139.5182094549145 413.1727280712211 1139.5182094549145 415.98522795946246L1139.5182094549145 415.98522795946246Q1139.5182094549145 419.5529361510278 1138.1119595107941 420.75085277009356Q1136.7057095666732 421.97481105479113 1132.773418056262 422.1571027142142L1132.773418056262 422.1571027142142Q1126.9661266203564 422.36543603926907 1117.7734186523085 422.36543603926907L1117.7734186523085 422.36543603926907Q1116.8359186895614 434.1623105705034 1116.8359186895614 444.1102268418754L1116.8359186895614 444.1102268418754Q1116.8359186895614 462.28730945291636 1119.75258524033 472.5998090431344Q1122.643210125467 482.91230863335255 1130.3515431524986 482.91230863335255L1130.3515431524986 482.91230863335255Q1134.466126322333 482.91230863335255 1136.9140428917283 479.7352254262651Q1139.3359177954917 476.5321005535459 1139.7265427799696 470.1779341393711L1139.7265427799696 470.1779341393711Q1139.9088344393926 467.1571009260749 1140.9244593990352 465.7508509819543Q1141.96612602431 464.3446010378336 1145.716125875298 464.3446010378336L1145.716125875298 464.3446010378336ZM1192.9557073314993 388.7977290397966Q1188.0859158583407 388.7977290397966 1184.7265409918305 385.51647917018175Q1181.341124459688 382.2352293005669 1181.341124459688 377.15710450235343L1181.341124459688 377.15710450235343Q1181.341124459688 372.10502136977186 1184.7265409918305 368.823771500157Q1188.0859158583407 365.5425216305422 1193.3463323159772 365.5425216305422L1193.3463323159772 365.5425216305422Q1198.3984154485588 365.5425216305422 1201.6796653181736 368.71960483762956Q1204.9609151877885 371.92272971034885 1204.9609151877885 376.9748128429304L1204.9609151877885 376.9748128429304Q1204.9609151877885 382.05293764114384 1201.4973736587508 385.4123125076543Q1198.0338321297127 388.7977290397966 1192.9557073314993 388.7977290397966L1192.9557073314993 388.7977290397966ZM1190.1432074432578 493.79772486747163Q1186.7838325767475 493.79772486747163 1184.804665988726 492.10501660140045Q1182.8515410663363 490.4123083353293 1182.8515410663363 487.59980844708804L1182.8515410663363 487.59980844708804L1184.7265409918305 407.9123116135847Q1184.7265409918305 404.73522840649724 1186.67966591422 403.0425201404261Q1188.6588325022417 401.34981187435494 1192.0182073687522 401.34981187435494L1192.0182073687522 401.34981187435494Q1195.4036239008947 401.34981187435494 1197.3827904889163 403.0425201404261Q1199.335915411306 404.73522840649724 1199.335915411306 408.0946032730077L1199.335915411306 408.0946032730077L1197.4609154858117 487.59980844708804Q1197.2786238263889 490.5945999947524 1195.299457238367 492.2091832639279Q1193.3463323159772 493.79772486747163 1190.1432074432578 493.79772486747163L1190.1432074432578 493.79772486747163ZM1274.7265374155518 495.0998081490648Q1253.5286215912147 495.0998081490648 1239.5702888125356 483.84980859609965Q1225.5859143682246 472.5998090431344 1225.5859143682246 448.61543499618784L1225.5859143682246 448.61543499618784Q1225.5859143682246 433.6154355922343 1231.3150808072346 422.2612693767416Q1237.0182055806129 410.907103161249 1247.903621814732 404.5529367470742Q1258.7890380488511 398.17272866726756 1273.5807041277499 398.17272866726756L1273.5807041277499 398.17272866726756Q1287.8515368940111 398.17272866726756 1299.1796614438717 404.0841867657007Q1310.5338276593648 409.9696031985019 1316.9921607360666 421.3237694139945Q1323.4765354784008 432.6779356294872 1323.4765354784008 448.4071016711329L1323.4765354784008 448.4071016711329Q1323.4765354784008 471.29772576154124 1310.065077677991 483.19876695530303Q1296.6536198775811 495.0998081490648 1274.7265374155518 495.0998081490648L1274.7265374155518 495.0998081490648ZM1274.3359124310737 483.3029336178305Q1289.3359118350274 483.3029336178305 1299.1796614438717 474.39668397173307Q1309.0234110527167 465.4904343256356 1309.0234110527167 448.2248100117099L1309.0234110527167 448.2248100117099Q1309.0234110527167 436.9748104587447 1304.6223695609315 428.25085247207033Q1300.2213280691465 419.5529361510278 1292.2525783857961 414.76126967476483Q1284.2838287024458 409.9696031985019 1273.9713291122275 409.9696031985019L1273.9713291122275 409.9696031985019Q1258.5807047237963 409.9696031985019 1249.3098717588528 420.4904361137749Q1240.0390387939092 430.985227363416 1240.0390387939092 448.2248100117099L1240.0390387939092 448.2248100117099Q1240.0390387939092 466.4279342883827 1249.9609133996491 474.86543395310656Q1259.9088296710213 483.3029336178305 1274.3359124310737 483.3029336178305L1274.3359124310737 483.3029336178305ZM1389.648407848967 399.47481194886075Q1421.341114922945 399.47481194886075 1421.341114922945 444.29251850129845L1421.341114922945 444.29251850129845L1421.341114922945 488.172725090989Q1421.341114922945 494.7352248302187 1414.4140318648695 494.7352248302187L1414.4140318648695 494.7352248302187Q1406.9140321628927 494.7352248302187 1406.9140321628927 488.35501675041206L1406.9140321628927 488.35501675041206L1406.9140321628927 444.1102268418754Q1406.9140321628927 427.5998108312737 1403.164032311904 419.81335280734646Q1399.414032460916 412.052936449051 1389.648407848967 412.052936449051L1389.648407848967 412.052936449051Q1379.335908258749 412.052936449051 1372.773408519519 419.91751946987387Q1366.2109087802894 427.7821024906968 1363.5807005514712 440.54251865031006L1363.5807005514712 440.54251865031006Q1361.9140339510318 449.162309974457 1361.9140339510318 461.7404344746472L1361.9140339510318 461.7404344746472L1362.096325610455 489.47480837258223Q1362.096325610455 492.10501660140045 1360.221325684961 493.5112665455211Q1358.3463257594667 494.91751648964174 1355.1432008867473 494.91751648964174L1355.1432008867473 494.91751648964174Q1351.6015343608137 494.91751648964174 1349.7265344353195 493.4070998829937Q1347.8515345098253 491.92272494197744 1347.8515345098253 489.47480837258223L1347.8515345098253 489.47480837258223Q1347.8515345098253 472.7821007025575 1347.0963262065015 448.7977266556109L1347.0963262065015 448.7977266556109Q1346.5234095626004 434.9175188738275 1346.5234095626004 424.24043596476326L1346.5234095626004 424.24043596476326Q1346.5234095626004 419.5529361510278 1345.5077846029578 416.8185612596821Q1344.466117977683 414.1102280339682 1341.471326430019 409.2404365608097L1341.471326430019 409.2404365608097Q1340.7161181266947 408.0946032730077 1340.7161181266947 406.61022833199144L1340.7161181266947 406.61022833199144Q1340.7161181266947 404.3446034220193 1343.2421596929855 402.3914784996295Q1345.7682012592763 400.41231191160784 1348.2161178286715 400.41231191160784L1348.2161178286715 400.41231191160784Q1350.6640343980666 400.41231191160784 1353.2682009612531 403.9800201031732L1353.2682009612531 403.9800201031732Q1355.3515342118021 406.9748116508375 1357.122367474769 411.1935614831995Q1358.8932007377357 415.41231131556145 1358.8932007377357 419.16231116654984L1358.8932007377357 419.16231116654984L1358.8932007377357 421.2196027514671Q1362.278617269878 411.8446031239961 1369.7786169718547 405.67272836924434Q1377.2786166738315 399.47481194886075 1389.648407848967 399.47481194886075L1389.648407848967 399.47481194886075ZM1461.2890300022245 494.1623081863177Q1456.393196863434 494.1623081863177 1453.3984053157697 491.06334997612595Q1450.4036137681053 487.99043343156603 1450.4036137681053 483.09460029277557L1450.4036137681053 483.09460029277557Q1450.4036137681053 478.042517160194 1453.7890303002475 474.6571006280517Q1457.148405166758 471.29772576154124 1461.8359049804935 471.29772576154124L1461.8359049804935 471.29772576154124Q1466.1588214753829 471.29772576154124 1469.5181963418934 474.86543395310656Q1472.9036128740356 478.4071004790401 1472.9036128740356 483.09460029277557L1472.9036128740356 483.09460029277557Q1472.9036128740356 487.59980844708804 1469.4400713449977 490.8810583167029Q1465.97652981596 494.1623081863177 1461.2890300022245 494.1623081863177L1461.2890300022245 494.1623081863177ZM1511.9140279905678 493.2248082235706Q1508.7109031178484 493.2248082235706 1506.7577781954585 491.5320999574995Q1504.778611607437 489.86543335706017 1504.778611607437 486.66230848434094L1504.778611607437 486.66230848434094L1503.6588199852667 353.17273045540685Q1503.6588199852667 349.9696055826876 1505.7161115701842 348.19877231972083Q1507.7734031551013 346.4279390567541 1511.1588196872435 346.4279390567541L1511.1588196872435 346.4279390567541Q1514.335902894331 346.4279390567541 1516.2109028198252 348.19877231972083Q1518.0859027453193 349.9696055826876 1518.0859027453193 352.99043879598383L1518.0859027453193 352.99043879598383L1519.0234027080664 486.66230848434094Q1519.0234027080664 489.86543335706017 1517.0702777856768 491.5320999574995Q1515.0911111976552 493.2248082235706 1511.9140279905678 493.2248082235706L1511.9140279905678 493.2248082235706ZM1596.0806913127517 399.47481194886075Q1627.7733983867302 399.47481194886075 1627.7733983867302 444.29251850129845L1627.7733983867302 444.29251850129845L1627.7733983867302 488.172725090989Q1627.7733983867302 494.7352248302187 1620.846315328654 494.7352248302187L1620.846315328654 494.7352248302187Q1613.3463156266773 494.7352248302187 1613.3463156266773 488.35501675041206L1613.3463156266773 488.35501675041206L1613.3463156266773 444.1102268418754Q1613.3463156266773 427.5998108312737 1609.5963157756892 419.81335280734646Q1605.8463159247005 412.052936449051 1596.0806913127517 412.052936449051L1596.0806913127517 412.052936449051Q1585.7681917225336 412.052936449051 1579.205691983304 419.91751946987387Q1572.643192244074 427.7821024906968 1570.0390256808878 440.54251865031006L1570.0390256808878 440.54251865031006Q1568.3463174148164 449.162309974457 1568.3463174148164 461.7404344746472L1568.3463174148164 461.7404344746472L1568.5286090742397 489.47480837258223Q1568.5286090742397 492.10501660140045 1566.6536091487455 493.5112665455211Q1564.7786092232514 494.91751648964174 1561.601526016164 494.91751648964174L1561.601526016164 494.91751648964174Q1558.0338178245984 494.91751648964174 1556.1588178991044 493.4070998829937Q1554.2838179736102 491.92272494197744 1554.2838179736102 489.47480837258223L1554.2838179736102 489.47480837258223Q1554.2838179736102 472.7821007025575 1553.5286096702862 448.7977266556109L1553.5286096702862 448.7977266556109Q1552.9556930263852 434.9175188738275 1552.9556930263852 424.24043596476326L1552.9556930263852 424.24043596476326Q1552.9556930263852 419.5529361510278 1551.9400680667425 416.8185612596821Q1550.8984014414677 414.1102280339682 1547.9036098938036 409.2404365608097L1547.9036098938036 409.2404365608097Q1547.1484015904794 408.0946032730077 1547.1484015904794 406.61022833199144L1547.1484015904794 406.61022833199144Q1547.1484015904794 404.3446034220193 1549.6744431567704 402.3914784996295Q1552.226526388693 400.41231191160784 1554.6484012924564 400.41231191160784L1554.6484012924564 400.41231191160784Q1557.0963178618515 400.41231191160784 1559.7265260906697 403.9800201031732L1559.7265260906697 403.9800201031732Q1561.7838176755868 406.9748116508375 1563.5546509385536 411.1935614831995Q1565.3515258671523 415.41231131556145 1565.3515258671523 419.16231116654984L1565.3515258671523 419.16231116654984L1565.3515258671523 421.2196027514671Q1568.7109007336626 411.8446031239961 1576.2109004356396 405.67272836924434Q1583.7109001376161 399.47481194886075 1596.0806913127517 399.47481194886075L1596.0806913127517 399.47481194886075Z " fill="#b88746" transform="matrix(0.537544095414077,0,0,0.5375440954140769,0,73.46389695598002)"/></g></svg>